<?xml version="1.0" ?><!DOCTYPE svg  PUBLIC '-//W3C//DTD SVG 1.1//EN'  'http://www.w3.org/Graphics/SVG/1.1/DTD/svg11.dtd'><svg enable-background="new 0 0 128 128" height="128px" id="Layer_1" version="1.1" viewBox="0 0 128 128" width="128px" xml:space="preserve" xmlns="http://www.w3.org/2000/svg" xmlns:xlink="http://www.w3.org/1999/xlink"><path d="M127.795,45.083C122.35,34,121.154,34,120,34H8c-1.155,0-2.35,0-7.794,11.083L0,45.501v0.466  c0,2.203,1.794,3.996,4,3.996h6.197c-0.042,0.162-0.072,0.33-0.072,0.505v36.076c-1.19,0.694-2,1.972-2,3.45  c0,2.212,1.791,4.006,4,4.006s4-1.794,4-4.006c0-1.479-0.81-2.756-2-3.45V76.48l10.5-11.996v13.262c-1.19,0.694-2,1.972-2,3.45  c0,2.212,1.791,4.006,4,4.006s4-1.794,4-4.006c0-1.479-0.81-2.756-2-3.45V50.468c0-0.175-0.03-0.343-0.072-0.505h72.145  c-0.044,0.162-0.072,0.33-0.072,0.505v27.279c-1.19,0.694-2,1.972-2,3.45c0,2.212,1.791,4.006,4,4.006s4-1.794,4-4.006  c0-1.479-0.81-2.756-2-3.45V66.543l9.5,11.51v8.491c-1.19,0.694-2,1.972-2,3.45c0,2.212,1.791,4.006,4,4.006s4-1.794,4-4.006  c0-1.479-0.81-2.756-2-3.45V49.97c0-0.002-0.001-0.005-0.001-0.007H124c2.206,0,4-1.792,4-3.996v-0.466L127.795,45.083z   M4.234,45.967c1.632-3.253,3.58-6.775,4.481-7.961h8.945l-3.51,7.96L4.234,45.967z M14.125,73.441V50.468  c0-0.175-0.03-0.343-0.072-0.505h10.645c-0.042,0.162-0.072,0.33-0.072,0.505v10.979L14.125,73.441z M16.336,45.966l3.51-7.96  h89.323l3.705,7.953L16.336,45.966z M104.625,63.399V50.468c0-0.175-0.029-0.343-0.072-0.505h9.573c0,0.002-0.001,0.005-0.001,0.007  v24.94L104.625,63.399z M115.081,45.958l-3.705-7.953h7.909c0.9,1.185,2.845,4.701,4.477,7.952L115.081,45.958z" fill="#221F1F"/></svg>