<svg width="151" height="76" viewBox="0 0 151 76" fill="none" xmlns="http://www.w3.org/2000/svg">
<path fill-rule="evenodd" clip-rule="evenodd" d="M75.3431 0C116.954 0 150.686 16.866 150.686 37.6714C150.686 58.4767 116.954 75.3431 75.3431 75.3431C33.7323 75.3431 0 58.4767 0 37.6714C0 16.866 33.7323 0 75.3431 0Z" fill="#FEFEFE"/>
<path fill-rule="evenodd" clip-rule="evenodd" d="M75.343 3.76709C112.793 3.76709 143.152 18.9468 143.152 37.6716C143.152 56.3966 112.793 71.5762 75.343 71.5762C37.8931 71.5762 7.53394 56.3966 7.53394 37.6716C7.53394 18.9468 37.8931 3.76709 75.343 3.76709ZM79.1062 9.58338C110.132 13.7404 135.337 30.8451 133.259 46.3579C131.18 61.8708 102.605 69.9176 71.5798 65.7605C-2.6048 55.8203 -3.96255 -1.54691 79.1062 9.58338Z" fill="#294F99"/>
<path fill-rule="evenodd" clip-rule="evenodd" d="M63.975 35.6987H86.7104C87.7958 35.6987 88.6832 36.5863 88.6832 37.6711C88.6832 38.756 87.7958 39.6438 86.7104 39.6438H63.975C62.8905 39.6438 62.0029 38.7563 62.0029 37.6714C62.0029 36.5866 62.8905 35.6987 63.975 35.6987Z" fill="#A50328"/>
<path fill-rule="evenodd" clip-rule="evenodd" d="M73.3379 48.7937V26.5486C73.3379 25.4461 74.24 24.5444 75.3431 24.5444C76.4452 24.5444 77.3473 25.4461 77.3473 26.5486V48.7937C77.3473 49.8963 76.4452 50.7981 75.3431 50.7981C74.24 50.7981 73.3379 49.8963 73.3379 48.7937Z" fill="#A50328"/>
<path fill-rule="evenodd" clip-rule="evenodd" d="M53.1733 15.002H97.5125C99.6684 15.002 101.433 16.7659 101.433 18.9224C101.433 21.0788 99.6684 22.8425 97.5125 22.8425H53.1733C51.0171 22.8425 49.2532 21.0788 49.2532 18.9224C49.2532 16.7659 51.0171 15.002 53.1733 15.002Z" fill="#294F99"/>
<path fill-rule="evenodd" clip-rule="evenodd" d="M53.1733 52.5005H97.5125C99.6684 52.5005 101.433 54.2644 101.433 56.4206C101.433 58.5768 99.6684 60.341 97.5125 60.341H53.1733C51.0171 60.341 49.2532 58.5771 49.2532 56.4209C49.2532 54.2647 51.0171 52.5005 53.1733 52.5005Z" fill="#294F99"/>
<path fill-rule="evenodd" clip-rule="evenodd" d="M53.2431 26.2876H71.0206V34.1284H53.2431C51.087 34.1284 49.323 32.3645 49.323 30.208C49.323 28.0515 51.087 26.2876 53.2431 26.2876Z" fill="#294F99"/>
<path fill-rule="evenodd" clip-rule="evenodd" d="M97.4428 26.2876H79.6658V34.1284H97.4428C99.5997 34.1284 101.364 32.3645 101.364 30.208C101.364 28.0515 99.5997 26.2876 97.4428 26.2876Z" fill="#294F99"/>
<path fill-rule="evenodd" clip-rule="evenodd" d="M53.2431 41.2153H71.0206V49.0558H53.2431C51.087 49.0558 49.323 47.2919 49.323 45.1357C49.323 42.9793 51.087 41.2153 53.2431 41.2153Z" fill="#294F99"/>
<path fill-rule="evenodd" clip-rule="evenodd" d="M97.4428 41.2148H79.6658V49.0556H97.4428C99.5997 49.0556 101.364 47.2917 101.364 45.1352C101.364 42.9788 99.5997 41.2148 97.4428 41.2148Z" fill="#294F99"/>
<path fill-rule="evenodd" clip-rule="evenodd" d="M75.3432 13.7734C88.6311 13.7734 99.4027 24.5455 99.4027 37.8335C99.4027 69.481 51.2832 69.481 51.2832 37.8335C51.2832 24.5455 62.0552 13.7734 75.3432 13.7734ZM74.114 16.6327C102.398 14.5542 98.3085 38.0137 84.9546 49.8418C51.9045 79.1141 36.4794 19.3985 74.114 16.6327Z" fill="#FEFEFE"/>
</svg>
