<svg width="1440" height="34" viewBox="0 0 1440 34" fill="none" xmlns="http://www.w3.org/2000/svg">
<path opacity="0.1" d="M803.152 -767.928C844.991 -774.425 886.42 -779.184 927.44 -782.205C445.493 -699.489 65.5796 -364.311 123.302 -50.3535C181.025 263.604 618.464 451.062 1100.44 368.37C1555.9 290.209 1887.87 -1.25958 1874.31 -298.162C1874.56 -296.749 1874.95 -295.384 1875.2 -293.971C1933.36 51.5376 1547.73 399.239 1013.93 482.808C480.126 566.378 -0.00305176 354.092 -58.1924 8.70535C-116.382 -336.682 269.279 -684.383 803.152 -767.928ZM319.265 -122.13C364.534 151.869 738.552 320.25 1154.6 253.955C1570.64 187.66 1871.17 -88.1667 1825.83 -362.166C1825.63 -363.287 1825.33 -364.359 1825.14 -365.48C1835.7 -130.049 1577.05 101.192 1222.1 163.223C846.506 228.787 505.475 80.0681 460.624 -169.031C415.772 -418.131 683.654 -673.2 1059.22 -738.813C653.835 -723.341 273.848 -396.13 319.191 -122.13H319.265ZM1165.16 -631.951C1174.54 -633.559 1192.62 -635.923 1214.58 -639.26C1213.15 -692.862 1204.16 -751.75 1173.93 -771.314C1273.51 -793.242 1338.97 -786.908 1379.52 -776.187C1466.57 -752.091 1494.37 -653.562 1360.63 -603.469C1331.67 -592.627 1295.46 -582.882 1256.88 -573.721C1257.05 -571.284 1257.2 -569.019 1257.34 -566.875C1261.64 -511.202 1277.73 -464.35 1318.58 -454.799C1319.19 -454.653 1319.41 -454.507 1319.44 -454.385C1448.71 -426.317 1562.19 -337.437 1562.19 -228.919H907.692C907.692 -337.51 1021.17 -426.269 1150.45 -454.385C1150.45 -454.507 1150.69 -454.653 1151.31 -454.799C1191.32 -464.106 1207.63 -509.302 1212.3 -563.512C1140.13 -547.505 1066.17 -532.789 1019.7 -516.148C766.873 -425.66 757.023 -264.661 801.384 -178.29C863.97 -56.4689 1104.93 38.1617 1299.54 -44.2868C1321.85 -166.108 1474.99 -151.221 1474.99 -151.221C1499.56 -37.6354 1305.24 67.3744 1153.03 73.4654C916.092 82.9674 775.151 -7.54553 711.189 -83.8542C655.505 -150.295 642.978 -239.152 662.432 -309.515C709.568 -480.04 876.792 -582.224 1165.16 -631.951ZM1255.57 -646.156C1321.5 -658.338 1397.2 -678.925 1400.74 -713.425C1403.2 -736.742 1367.11 -762.154 1295.74 -771.168C1266.92 -752.213 1257.56 -697.735 1255.57 -646.083V-646.156Z" fill="white"/>
</svg>
