<?xml version="1.0" encoding="UTF-8"?> <svg xmlns="http://www.w3.org/2000/svg" width="459" height="76" viewBox="0 0 459 76" fill="none"> <path fill-rule="evenodd" clip-rule="evenodd" d="M75.3431 0C116.954 0 150.686 16.866 150.686 37.6714C150.686 58.4767 116.954 75.3431 75.3431 75.3431C33.7323 75.3431 0 58.4767 0 37.6714C0 16.866 33.7323 0 75.3431 0Z" fill="#FEFEFE"></path> <path fill-rule="evenodd" clip-rule="evenodd" d="M75.343 3.76709C112.793 3.76709 143.152 18.9468 143.152 37.6716C143.152 56.3966 112.793 71.5762 75.343 71.5762C37.8931 71.5762 7.53394 56.3966 7.53394 37.6716C7.53394 18.9468 37.8931 3.76709 75.343 3.76709ZM79.1062 9.58338C110.132 13.7404 135.337 30.8451 133.259 46.3579C131.18 61.8708 102.605 69.9176 71.5798 65.7605C-2.60479 55.8203 -3.96254 -1.54691 79.1062 9.58338Z" fill="#294F99"></path> <path fill-rule="evenodd" clip-rule="evenodd" d="M63.975 35.6987H86.7104C87.7958 35.6987 88.6832 36.5863 88.6832 37.6711V37.6714C88.6832 38.7563 87.7958 39.6438 86.7104 39.6438H63.975C62.8905 39.6438 62.0029 38.7563 62.0029 37.6714V37.6711C62.0029 36.5863 62.8905 35.6987 63.975 35.6987Z" fill="#E31E24"></path> <path fill-rule="evenodd" clip-rule="evenodd" d="M73.3379 48.7937V26.5486C73.3379 25.4461 74.24 24.5444 75.3431 24.5444C76.4452 24.5444 77.3473 25.4461 77.3473 26.5486V48.7937C77.3473 49.8963 76.4452 50.7981 75.3431 50.7981C74.24 50.7981 73.3379 49.8963 73.3379 48.7937Z" fill="#E31E24"></path> <path fill-rule="evenodd" clip-rule="evenodd" d="M53.1733 15.002H97.5125C99.6684 15.002 101.433 16.7659 101.433 18.9224C101.433 21.0788 99.6684 22.8425 97.5125 22.8425H53.1733C51.0171 22.8425 49.2532 21.0788 49.2532 18.9224C49.2532 16.7659 51.0171 15.002 53.1733 15.002Z" fill="#294F99"></path> <path fill-rule="evenodd" clip-rule="evenodd" d="M53.1733 52.5005H97.5125C99.6684 52.5005 101.433 54.2644 101.433 56.4206V56.4209C101.433 58.5771 99.6684 60.341 97.5125 60.341H53.1733C51.0171 60.341 49.2532 58.5771 49.2532 56.4209V56.4206C49.2532 54.2644 51.0171 52.5005 53.1733 52.5005Z" fill="#294F99"></path> <path fill-rule="evenodd" clip-rule="evenodd" d="M53.2431 26.2876H71.0206V34.1284H53.2431C51.087 34.1284 49.323 32.3645 49.323 30.208C49.323 28.0515 51.087 26.2876 53.2431 26.2876Z" fill="#294F99"></path> <path fill-rule="evenodd" clip-rule="evenodd" d="M97.4428 26.2876H79.6658V34.1284H97.4428C99.5997 34.1284 101.364 32.3645 101.364 30.208C101.364 28.0515 99.5997 26.2876 97.4428 26.2876Z" fill="#294F99"></path> <path fill-rule="evenodd" clip-rule="evenodd" d="M53.2431 41.2153H71.0206V49.0558H53.2431C51.087 49.0558 49.323 47.2919 49.323 45.1357V45.1354C49.323 42.979 51.087 41.2153 53.2431 41.2153Z" fill="#294F99"></path> <path fill-rule="evenodd" clip-rule="evenodd" d="M97.4428 41.2148H79.6658V49.0556H97.4428C99.5997 49.0556 101.364 47.2917 101.364 45.1352C101.364 42.9788 99.5997 41.2148 97.4428 41.2148Z" fill="#294F99"></path> <path fill-rule="evenodd" clip-rule="evenodd" d="M75.3432 13.7734C88.6311 13.7734 99.4027 24.5455 99.4027 37.8335C99.4027 69.481 51.2832 69.481 51.2832 37.8335C51.2832 24.5455 62.0552 13.7734 75.3432 13.7734ZM74.114 16.6327C102.398 14.5542 98.3085 38.0137 84.9546 49.8418C51.9045 79.1141 36.4794 19.3985 74.114 16.6327Z" fill="#FEFEFE"></path> <path d="M177.794 35.4555H173.566L166.918 26.7334V35.4555H163.248V16.8413H166.918V25.0581L173.3 16.8413H177.528L170.641 25.8825L177.794 35.4555ZM193.117 22.1596V35.4555H189.686V25.457H186.017V29.8978C186.017 34.0107 184.146 35.8632 180.406 35.4555V32.2379C181.115 32.4152 181.656 32.2999 182.028 31.8922C182.4 31.4667 182.586 30.7399 182.586 29.7117V22.1596H193.117ZM208.086 22.1596H210.639V35.4555H207.288V27.9035L201.039 35.4555H198.486V22.1596H201.837V29.7117L208.086 22.1596ZM224.764 22.1596H228.194V35.4555H224.764V30.4031H219.472V35.4555H216.042V22.1596H219.472V27.1855H224.764V22.1596ZM243.197 22.1596H245.749V35.4555H242.399V27.9035L236.15 35.4555H233.597V22.1596H236.948V29.7117L243.197 22.1596ZM263.411 35.4555H259.423L254.583 29.4192V35.4555H251.153V22.1596H254.583V28.0098L259.157 22.1596H263.252L257.907 28.7278L263.411 35.4555ZM276.528 22.1596H279.958V35.4555H276.528V33.8866C275.5 35.1807 274.055 35.8278 272.193 35.8278C270.421 35.8278 268.896 35.1541 267.62 33.8068C266.361 32.4418 265.732 30.7754 265.732 28.8076C265.732 26.8398 266.361 25.1822 267.62 23.8349C268.896 22.4699 270.421 21.7874 272.193 21.7874C274.055 21.7874 275.5 22.4344 276.528 23.7286V22.1596ZM270.199 31.5199C270.89 32.2113 271.768 32.557 272.832 32.557C273.895 32.557 274.773 32.2113 275.464 31.5199C276.173 30.8108 276.528 29.9067 276.528 28.8076C276.528 27.7084 276.173 26.8132 275.464 26.1218C274.773 25.4127 273.895 25.0581 272.832 25.0581C271.768 25.0581 270.89 25.4127 270.199 26.1218C269.508 26.8132 269.162 27.7084 269.162 28.8076C269.162 29.9067 269.508 30.8108 270.199 31.5199ZM308.305 16.8413V35.4555H304.635V20.3514H298.067V35.4555H294.397V16.8413H308.305ZM321.609 21.7874C323.399 21.7874 324.924 22.4699 326.182 23.8349C327.459 25.1822 328.097 26.8398 328.097 28.8076C328.097 30.7754 327.459 32.4418 326.182 33.8068C324.924 35.1541 323.399 35.8278 321.609 35.8278C319.747 35.8278 318.311 35.1807 317.301 33.8866V40.7738H313.87V22.1596H317.301V23.7286C318.311 22.4344 319.747 21.7874 321.609 21.7874ZM318.338 31.5199C319.029 32.2113 319.907 32.557 320.97 32.557C322.034 32.557 322.912 32.2113 323.603 31.5199C324.312 30.8108 324.667 29.9067 324.667 28.8076C324.667 27.7084 324.312 26.8132 323.603 26.1218C322.912 25.4127 322.034 25.0581 320.97 25.0581C319.907 25.0581 319.029 25.4127 318.338 26.1218C317.646 26.8132 317.301 27.7084 317.301 28.8076C317.301 29.9067 317.646 30.8108 318.338 31.5199ZM342.377 22.1596H344.93V35.4555H341.579V27.9035L335.33 35.4555H332.777V22.1596H336.128V29.7117L342.377 22.1596ZM364.16 22.1596V35.4555H360.836V27.6907L357.459 33.0091H357.034L353.63 27.6375V35.4555H350.333V22.1596H353.71L357.246 27.7439L360.783 22.1596H364.16ZM379.655 22.1596H383.086V35.4555H379.655V33.8866C378.627 35.1807 377.182 35.8278 375.321 35.8278C373.548 35.8278 372.024 35.1541 370.747 33.8068C369.488 32.4418 368.859 30.7754 368.859 28.8076C368.859 26.8398 369.488 25.1822 370.747 23.8349C372.024 22.4699 373.548 21.7874 375.321 21.7874C377.182 21.7874 378.627 22.4344 379.655 23.7286V22.1596ZM373.327 31.5199C374.018 32.2113 374.895 32.557 375.959 32.557C377.023 32.557 377.9 32.2113 378.592 31.5199C379.301 30.8108 379.655 29.9067 379.655 28.8076C379.655 27.7084 379.301 26.8132 378.592 26.1218C377.9 25.4127 377.023 25.0581 375.959 25.0581C374.895 25.0581 374.018 25.4127 373.327 26.1218C372.635 26.8132 372.289 27.7084 372.289 28.8076C372.289 29.9067 372.635 30.8108 373.327 31.5199ZM388.616 29.0735V25.7761H398.588V29.0735H388.616ZM422.517 16.8413V35.4555H418.874V23.3829L413.636 32.0252H413.21L407.972 23.4095V35.4555H404.302V16.8413H408.078L413.423 25.6432L418.741 16.8413H422.517ZM430.985 30.2169C431.446 31.8833 432.696 32.7165 434.735 32.7165C436.046 32.7165 437.039 32.2734 437.713 31.387L440.478 32.9825C439.167 34.8793 437.234 35.8278 434.681 35.8278C432.483 35.8278 430.719 35.163 429.39 33.8334C428.06 32.5038 427.395 30.8285 427.395 28.8076C427.395 26.8043 428.051 25.1379 429.363 23.8083C430.675 22.461 432.359 21.7874 434.415 21.7874C436.366 21.7874 437.97 22.461 439.229 23.8083C440.505 25.1556 441.143 26.8221 441.143 28.8076C441.143 29.2508 441.099 29.7205 441.01 30.2169H430.985ZM430.932 27.5578H437.713C437.518 26.6536 437.11 25.98 436.49 25.5368C435.887 25.0936 435.196 24.872 434.415 24.872C433.494 24.872 432.731 25.1113 432.129 25.59C431.526 26.0509 431.127 26.7068 430.932 27.5578ZM457.245 32.2379H459V39.0188H455.649V35.4555H447.406V39.0188H444.055V32.2379H445.678C446.44 31.1033 446.821 29.5344 446.821 27.5312V22.1596H457.245V32.2379ZM449.347 32.2379H453.894V25.2443H450.172V27.5312C450.172 29.4103 449.897 30.9792 449.347 32.2379Z" fill="#294F99"></path> <path d="M168.97 45.4028H170.896V57.1229H168.97V52.619C168.156 52.9874 167.296 53.1715 166.392 53.1715C165.22 53.1715 164.266 52.8478 163.529 52.2005C162.803 51.5419 162.441 50.6712 162.441 49.5886V45.4028H164.366V49.3876C164.366 49.9904 164.55 50.4648 164.919 50.8108C165.287 51.1568 165.789 51.3298 166.425 51.3298C167.352 51.3298 168.2 51.14 168.97 50.7606V45.4028ZM181.174 48.7514H182.982V57.1229H181.174V55.9174C180.493 56.8661 179.516 57.3405 178.244 57.3405C177.095 57.3405 176.112 56.9163 175.297 56.0681C174.483 55.2086 174.075 54.165 174.075 52.9371C174.075 51.6982 174.483 50.6545 175.297 49.8062C176.112 48.9579 177.095 48.5338 178.244 48.5338C179.516 48.5338 180.493 49.0026 181.174 49.9402V48.7514ZM176.637 54.8626C177.139 55.3649 177.769 55.616 178.529 55.616C179.288 55.616 179.918 55.3649 180.421 54.8626C180.923 54.3492 181.174 53.7073 181.174 52.9371C181.174 52.167 180.923 51.5307 180.421 51.0284C179.918 50.515 179.288 50.2583 178.529 50.2583C177.769 50.2583 177.139 50.515 176.637 51.0284C176.134 51.5307 175.883 52.167 175.883 52.9371C175.883 53.7073 176.134 54.3492 176.637 54.8626ZM190.464 57.3405C189.203 57.3405 188.148 56.9163 187.3 56.0681C186.463 55.2198 186.044 54.1761 186.044 52.9371C186.044 51.687 186.463 50.6434 187.3 49.8062C188.148 48.9579 189.203 48.5338 190.464 48.5338C191.279 48.5338 192.021 48.7291 192.691 49.1198C193.361 49.5105 193.863 50.035 194.198 50.6936L192.641 51.5977C192.451 51.1959 192.161 50.8834 191.77 50.6601C191.391 50.4257 190.95 50.3085 190.448 50.3085C189.711 50.3085 189.091 50.5597 188.589 51.0619C188.098 51.5642 187.852 52.1893 187.852 52.9371C187.852 53.685 188.098 54.3101 188.589 54.8123C189.091 55.3146 189.711 55.5658 190.448 55.5658C190.939 55.5658 191.379 55.4486 191.77 55.2142C192.172 54.9798 192.474 54.6673 192.674 54.2766L194.232 55.164C193.874 55.8337 193.361 56.3638 192.691 56.7545C192.021 57.1452 191.279 57.3405 190.464 57.3405ZM203.276 48.7514V50.4927H200.547V57.1229H198.738V50.4927H195.992V48.7514H203.276ZM211.564 48.7514H213.373V57.1229H211.564V53.791H207.73V57.1229H205.922V48.7514H207.73V52.0833H211.564V48.7514ZM220.544 51.5977C221.437 51.5977 222.169 51.8545 222.738 52.3679C223.307 52.8702 223.592 53.5343 223.592 54.3603C223.592 55.1751 223.307 55.8393 222.738 56.3527C222.169 56.8661 221.437 57.1229 220.544 57.1229H216.895V48.7514H218.703V51.5977H220.544ZM224.596 48.7514H226.405V57.1229H224.596V48.7514ZM220.561 55.4988C220.918 55.4988 221.214 55.3927 221.449 55.1807C221.694 54.9686 221.817 54.6951 221.817 54.3603C221.817 54.0143 221.694 53.7408 221.449 53.5399C221.214 53.3278 220.918 53.2218 220.561 53.2218H218.703V55.4988H220.561ZM231.299 47.5794V46.0056H235.987V47.5794H231.299ZM235.987 48.7514H237.377V57.1229H235.602V51.7986L231.316 57.1229H229.926V48.7514H231.701V54.0589L235.987 48.7514ZM252.903 48.7514V50.4927H250.174V57.1229H248.365V50.4927H245.619V48.7514H252.903ZM260.287 48.5338C261.438 48.5338 262.419 48.9635 263.234 49.823C264.049 50.6712 264.456 51.7093 264.456 52.9371C264.456 54.1761 264.049 55.2198 263.234 56.0681C262.419 56.9163 261.438 57.3405 260.287 57.3405C259.015 57.3405 258.039 56.8717 257.357 55.9341V60.4715H255.549V48.7514H257.357V49.9569C258.039 49.0082 259.015 48.5338 260.287 48.5338ZM258.111 54.8626C258.613 55.3649 259.244 55.616 260.003 55.616C260.762 55.616 261.392 55.3649 261.895 54.8626C262.397 54.3492 262.648 53.7073 262.648 52.9371C262.648 52.167 262.397 51.5307 261.895 51.0284C261.392 50.515 260.762 50.2583 260.003 50.2583C259.244 50.2583 258.613 50.515 258.111 51.0284C257.608 51.5307 257.357 52.167 257.357 52.9371C257.357 53.7073 257.608 54.3492 258.111 54.8626ZM274.148 48.7514H275.957V57.1229H274.148V55.9174C273.468 56.8661 272.491 57.3405 271.218 57.3405C270.069 57.3405 269.087 56.9163 268.272 56.0681C267.457 55.2086 267.049 54.165 267.049 52.9371C267.049 51.6982 267.457 50.6545 268.272 49.8062C269.087 48.9579 270.069 48.5338 271.218 48.5338C272.491 48.5338 273.468 49.0026 274.148 49.9402V48.7514ZM269.611 54.8626C270.113 55.3649 270.745 55.616 271.503 55.616C272.262 55.616 272.893 55.3649 273.395 54.8626C273.897 54.3492 274.148 53.7073 274.148 52.9371C274.148 52.167 273.897 51.5307 273.395 51.0284C272.893 50.515 272.262 50.2583 271.503 50.2583C270.745 50.2583 270.113 50.515 269.611 51.0284C269.109 51.5307 268.858 52.167 268.858 52.9371C268.858 53.7073 269.109 54.3492 269.611 54.8626ZM285.28 52.8199C286.107 53.1994 286.519 53.8413 286.519 54.7454C286.519 55.4486 286.28 56.0234 285.799 56.4699C285.331 56.9052 284.656 57.1229 283.774 57.1229H279.487V48.7514H283.439C284.299 48.7514 284.962 48.9691 285.431 49.4044C285.912 49.8286 286.151 50.3811 286.151 51.0619C286.151 51.8545 285.862 52.4405 285.28 52.8199ZM283.305 50.2918H281.212V52.1502H283.305C284.041 52.1502 284.41 51.8377 284.41 51.2126C284.41 50.5987 284.041 50.2918 283.305 50.2918ZM283.606 55.549C284.366 55.549 284.745 55.2198 284.745 54.5612C284.745 54.271 284.644 54.0478 284.443 53.8915C284.242 53.7241 283.964 53.6403 283.606 53.6403H281.212V55.549H283.606ZM297.952 48.7514V57.1229H296.194V51.6145L293.783 55.4486H293.565L291.171 51.6312V57.1229H289.413V48.7514H291.255L293.682 52.619L296.11 48.7514H297.952ZM308.915 48.7514V57.1229H307.106V50.4592H303.272V57.1229H301.464V48.7514H308.915ZM318.079 48.7514H320.004L316.79 57.3908C316.399 58.4512 315.852 59.2436 315.149 59.7682C314.446 60.2929 313.63 60.5273 312.704 60.4715V58.7804C313.274 58.8139 313.731 58.6967 314.077 58.4288C314.434 58.1721 314.718 57.7535 314.931 57.1731L314.981 57.0559L311.465 48.7514H313.391L315.936 54.8458L318.079 48.7514ZM328.2 48.7514H330.009V57.1229H328.2V53.791H324.366V57.1229H322.558V48.7514H324.366V52.0833H328.2V48.7514ZM340.93 57.1229H338.77L335.338 53.2553V57.1229H333.53V48.7514H335.338V52.4516L338.586 48.7514H340.796L337.113 52.8534L340.93 57.1229ZM349.965 48.7514V50.4927H347.236V57.1229H345.428V50.4927H342.682V48.7514H349.965Z" fill="#E31E24"></path> </svg> 