<svg width="151" height="76" viewBox="0 0 151 76" fill="none" xmlns="http://www.w3.org/2000/svg">
<path fill-rule="evenodd" clip-rule="evenodd" d="M75.3431 0C116.954 0 150.686 16.866 150.686 37.6714C150.686 58.4767 116.954 75.3431 75.3431 75.3431C33.7323 75.3431 0 58.4767 0 37.6714C0 16.866 33.7323 0 75.3431 0Z" fill="#FEFEFE"/>
<path fill-rule="evenodd" clip-rule="evenodd" d="M75.3432 3.76709C112.793 3.76709 143.152 18.9468 143.152 37.6716C143.152 56.3966 112.793 71.5762 75.3432 71.5762C37.8933 71.5762 7.53418 56.3966 7.53418 37.6716C7.53418 18.9468 37.8933 3.76709 75.3432 3.76709ZM79.1064 9.58338C110.132 13.7404 135.337 30.8451 133.259 46.3579C131.18 61.8708 102.605 69.9176 71.58 65.7605C-2.60455 55.8203 -3.9623 -1.54691 79.1064 9.58338Z" fill="#294F99"/>
<path fill-rule="evenodd" clip-rule="evenodd" d="M63.975 35.6987H86.7104C87.7958 35.6987 88.6832 36.5863 88.6832 37.6711C88.6832 38.756 87.7958 39.6438 86.7104 39.6438H63.975C62.8905 39.6438 62.0029 38.7563 62.0029 37.6714C62.0029 36.5866 62.8905 35.6987 63.975 35.6987Z" fill="#E31E24"/>
<path fill-rule="evenodd" clip-rule="evenodd" d="M73.3379 48.7937V26.5486C73.3379 25.4461 74.24 24.5444 75.3431 24.5444C76.4452 24.5444 77.3473 25.4461 77.3473 26.5486V48.7937C77.3473 49.8963 76.4452 50.7981 75.3431 50.7981C74.24 50.7981 73.3379 49.8963 73.3379 48.7937Z" fill="#E31E24"/>
<path fill-rule="evenodd" clip-rule="evenodd" d="M53.1735 15.002H97.5127C99.6686 15.002 101.433 16.7659 101.433 18.9224C101.433 21.0788 99.6686 22.8425 97.5127 22.8425H53.1735C51.0173 22.8425 49.2534 21.0788 49.2534 18.9224C49.2534 16.7659 51.0173 15.002 53.1735 15.002Z" fill="#294F99"/>
<path fill-rule="evenodd" clip-rule="evenodd" d="M53.1735 52.5005H97.5127C99.6686 52.5005 101.433 54.2644 101.433 56.4206C101.433 58.5768 99.6686 60.341 97.5127 60.341H53.1735C51.0173 60.341 49.2534 58.5771 49.2534 56.4209C49.2534 54.2647 51.0173 52.5005 53.1735 52.5005Z" fill="#294F99"/>
<path fill-rule="evenodd" clip-rule="evenodd" d="M53.2433 26.2876H71.0208V34.1284H53.2433C51.0872 34.1284 49.3232 32.3645 49.3232 30.208C49.3232 28.0515 51.0872 26.2876 53.2433 26.2876Z" fill="#294F99"/>
<path fill-rule="evenodd" clip-rule="evenodd" d="M97.443 26.2876H79.666V34.1284H97.443C99.5999 34.1284 101.364 32.3645 101.364 30.208C101.364 28.0515 99.5999 26.2876 97.443 26.2876Z" fill="#294F99"/>
<path fill-rule="evenodd" clip-rule="evenodd" d="M53.2433 41.2153H71.0208V49.0558H53.2433C51.0872 49.0558 49.3232 47.2919 49.3232 45.1357C49.3232 42.9793 51.0872 41.2153 53.2433 41.2153Z" fill="#294F99"/>
<path fill-rule="evenodd" clip-rule="evenodd" d="M97.443 41.2148H79.666V49.0556H97.443C99.5999 49.0556 101.364 47.2917 101.364 45.1352C101.364 42.9788 99.5999 41.2148 97.443 41.2148Z" fill="#294F99"/>
<path fill-rule="evenodd" clip-rule="evenodd" d="M75.3432 13.7734C88.6311 13.7734 99.4027 24.5455 99.4027 37.8335C99.4027 69.481 51.2832 69.481 51.2832 37.8335C51.2832 24.5455 62.0552 13.7734 75.3432 13.7734ZM74.114 16.6327C102.398 14.5542 98.3085 38.0137 84.9546 49.8418C51.9045 79.1141 36.4794 19.3985 74.114 16.6327Z" fill="#FEFEFE"/>
</svg>
