<?xml version="1.0" ?><!DOCTYPE svg  PUBLIC '-//W3C//DTD SVG 1.1//EN'  'http://www.w3.org/Graphics/SVG/1.1/DTD/svg11.dtd'><svg enable-background="new 0 0 100 100" height="100px" id="Layer_1" version="1.1" viewBox="0 0 100 100" width="100px" xml:space="preserve" xmlns="http://www.w3.org/2000/svg" xmlns:xlink="http://www.w3.org/1999/xlink"><g id="Continued_lab_examination"><g><path d="M32,26c0.125,0,0.25-0.023,0.371-0.071L37.192,24H47c1.654,0,3-1.346,3-3v-7c0-1.654-1.346-3-3-3H36c-1.654,0-3,1.346-3,3    v6.764l-1.895,3.789c-0.186,0.372-0.123,0.819,0.159,1.125C31.458,25.887,31.726,26,32,26z M34.895,21.447    C34.964,21.309,35,21.155,35,21v-7c0-0.551,0.449-1,1-1h11c0.551,0,1,0.449,1,1v7c0,0.551-0.449,1-1,1H37    c-0.127,0-0.253,0.024-0.372,0.071l-2.558,1.023L34.895,21.447z"/><path d="M86,12H63c-0.553,0-1,0.448-1,1v19c0,0.552,0.447,1,1,1h13v11h2V33h4v11h2V33h2c0.553,0,1-0.448,1-1V13    C87,12.448,86.553,12,86,12z M85,31H64v-5h21V31z M85,24H64V14h21V24z"/><path d="M39,18c0,0.552,0.448,1,1,1s1-0.448,1-1h5c0.552,0,1-0.448,1-1s-0.448-1-1-1h-5c0-0.552-0.448-1-1-1s-1,0.448-1,1h-2    c-0.552,0-1,0.448-1,1s0.448,1,1,1H39z"/><path d="M66,30h1c0.553,0,1-0.448,1-1v-1c0-0.552-0.447-1-1-1h-1c-0.553,0-1,0.448-1,1v1C65,29.552,65.447,30,66,30z"/><path d="M71,30h1c0.553,0,1-0.448,1-1v-1c0-0.552-0.447-1-1-1h-1c-0.553,0-1,0.448-1,1v1C70,29.552,70.447,30,71,30z"/><path d="M67,63v-2.16c0-1.625-1.844-2.84-3.49-2.84H60.82C60.93,57.693,61,57.37,61,57.029l0.04-1.354l1.076-0.344    c0.325-0.104,0.575-0.367,0.661-0.697l0.811-3.07c0.042-0.157,0.044-0.322,0.008-0.48l-2.625-11.326    C60.559,38.108,59.264,37,57.75,37H47c-1.408,0-2.664,0.962-3.382,2.635l-1.112,3.125l-5.686,3.159    c-0.542-1.277-1.481-3.475-2.156-4.992c-0.679-1.526-1.937-2.402-3.454-2.402c-0.286,0-0.516,0.033-0.658,0.06    c-0.132,0.002-0.4,0.006-0.753,0.011c0.005-0.004,0.008-0.01,0.013-0.014c1.178-0.834,1.887-2.178,1.896-3.632l0.004-5.261    c0.061-0.162,0.095-0.334,0.062-0.516c-0.017-0.097-0.062-0.18-0.104-0.263c-0.011-0.104-0.009-0.2-0.029-0.309    c-0.388-2.132-2.236-3.681-4.4-3.684c-1.924,0.009-3.617,1.259-4.204,3.027c-0.041,0.071-0.088,0.137-0.113,0.22    c-0.022,0.077-0.017,0.154-0.021,0.23c-0.082,0.33-0.135,0.667-0.132,0.989l-0.005,5.543c-0.004,0.253,0.02,0.524,0.071,0.806    c0.222,1.219,0.931,2.234,1.892,2.892c-1.349-0.008-2.341-0.032-2.889-0.071c-2.177-0.155-3.42,0.987-3.824,1.646    c-0.043,0.071-0.079,0.148-0.103,0.229l-4.04,13.11c-0.094,0.304-0.037,0.634,0.152,0.889l2.458,3.322    c0.008,0.021,0.005,0.044,0.014,0.066c0.075,0.175,0.198,0.313,0.342,0.416l0.212,0.285l1.113,2.375L18.12,88.999    c0,0.265,0.104,0.521,0.292,0.708S18.854,90,19.12,90h2.42c0.483,0,0.896-0.345,0.983-0.82l4.167-22.731l2.455,22.659    C29.201,89.615,29.629,90,30.14,90h2.98c0.547,0,0.993-0.439,1-0.986l0.444-34.382l1.067,0.423    c0.357,0.141,0.763,0.065,1.046-0.193l4.176-3.844l3.215,3.722L44,57c0,0.354,0.072,0.686,0.185,1H41.75    C40.131,58,39,59.168,39,60.84V63c-1.654,0-3,1.301-3,2.9V86.85c0,1.678,1.402,3.15,3,3.15h28c1.598,0,3-1.473,3-3.15V65.9    C70,64.301,68.654,63,67,63z M27.245,26.917c1.058,0.002,1.978,0.678,2.323,1.654l-1.912,0.382l-2.397-1.014    C25.712,27.317,26.443,26.92,27.245,26.917z M29.712,30.583l-0.003,4.359c-0.003,0.471-0.15,0.915-0.394,1.301l-1.012-1.54    l0.205-3.881L29.712,30.583z M24.772,29.904l1.743,0.737l-0.227,4.284c-0.011,0.213,0.046,0.424,0.163,0.602l1.202,1.824    c-0.139,0.025-0.275,0.063-0.42,0.064c-1.191-0.003-2.211-0.862-2.426-2.042c-0.023-0.13-0.041-0.271-0.039-0.431L24.772,29.904z     M40.38,48.736l-4.595,4.228l-1.193-0.473l0.033-5.485c0.003-0.552-0.442-1.002-0.994-1.006c-0.002,0-0.004,0-0.006,0    c-0.549,0-0.997,0.475-1,1.025l-0.037,6.092c0,0.012-0.005,0.023-0.005,0.035L32.133,88h-1.095l-2.503-23.107    C28.479,64.385,28.051,64,27.54,64h-1.6c-0.483,0-0.896,0.345-0.983,0.82L20.707,88h-0.585l0.045-27.332    c0-0.146-0.032-0.292-0.095-0.426l-1.124-2.397l11.031-4.76c0.486-0.209,0.725-0.762,0.544-1.26l-1-2.75    c-0.178-0.489-0.702-0.76-1.203-0.623l-8.25,2.25c-0.533,0.146-0.847,0.694-0.702,1.228c0.146,0.533,0.691,0.846,1.228,0.702    l7.362-2.008l0.363,0.999L17.8,56.163l-1.866-2.521l3.839-12.458c0.182-0.204,0.779-0.723,1.924-0.636    c0.729,0.053,2.077,0.079,4.004,0.079c2.452,0,4.981-0.043,4.981-0.043c0.071-0.001,0.158-0.014,0.227-0.03    c0.001,0,0.121-0.028,0.3-0.028c0.721,0,1.268,0.409,1.626,1.214c0.997,2.243,2.575,5.981,2.576,5.983    c0.11,0.261,0.327,0.464,0.595,0.556c0.268,0.092,0.563,0.066,0.812-0.071l4.672-2.596L40.38,48.736z M42.217,49.537l3.261-9.171    C45.763,39.706,46.312,39,47,39h10.75c0.666,0,1.13,0.644,1.275,1.226l2.564,11.069l-0.607,2.3l-0.879,0.281l-10.966-6.411    l0.693-1.13l9.072,4.077c0.502,0.229,1.096,0.002,1.322-0.502c0.228-0.503,0.002-1.095-0.502-1.322l-9.875-4.438    c-0.459-0.208-1-0.04-1.262,0.389l-1.688,2.75c-0.141,0.229-0.183,0.505-0.117,0.766c0.065,0.261,0.233,0.484,0.465,0.62    l11.796,6.896L59,57c0,0.551-0.449,1-1,1h-3.295l-5.82-6.895c-0.356-0.422-0.988-0.476-1.409-0.119    c-0.422,0.355-0.476,0.986-0.119,1.408l5.752,6.814l-1.057,0.938l-1.784-1.842l0,0l-4.416-4.552    c-0.006-0.008-0.008-0.019-0.015-0.026L42.217,49.537z M47.187,58H47c-0.551,0-1-0.449-1-0.969l0.007-0.247L47.187,58z M41,63    v-2.16C41,60,41.564,60,41.75,60H47h2.126l2.156,2.227c0.372,0.385,0.983,0.407,1.382,0.051l2.5-2.219    c0.021-0.02,0.041-0.039,0.061-0.059H58h5.51c0.739,0,1.49,0.539,1.49,0.84V63v11.66c0,0.42-0.85,1.34-1.49,1.34h-0.594L62,65.6    c0-1.555-1.23-2.6-3.061-2.6H47.63c-1.76,0-3.63,0.911-3.626,2.514L43.084,76H41.75C41.334,76,41,75.268,41,74.66V63z M68,86.85    c0,0.508-0.471,1.15-1,1.15H39c-0.529,0-1-0.643-1-1.15V65.9c0-0.496,0.449-0.9,1-0.9v9.66c0,1.642,1.029,3.34,2.75,3.34H44h0.916    L45,77.089v-0.001L46.002,65.6c0-0.203,0.736-0.6,1.628-0.6h11.31c0.396,0,1.061,0.078,1.064,0.688l1,11.4L61.084,78H62h1.51    c1.664,0,3.49-1.748,3.49-3.34V65c0.551,0,1,0.404,1,0.9V86.85z"/><path d="M47.293,24.293c-0.391,0.391-0.391,1.023,0,1.414l1.371,1.371C48.247,27.63,48,28.29,48,29v4c0,1.93,1.794,3.5,4,3.5    s4-1.57,4-3.5v-4c0-1.93-1.794-3.5-4-3.5c-0.622,0-1.203,0.135-1.729,0.357l-1.564-1.564    C48.316,23.902,47.684,23.902,47.293,24.293z M50,29c0-0.813,0.916-1.5,2-1.5s2,0.687,2,1.5v4c0,0.813-0.916,1.5-2,1.5    s-2-0.687-2-1.5V29z"/></g></g></svg>