<svg xmlns="http://www.w3.org/2000/svg" viewBox="0 0 64 64"><path d="M22.428,19.134l-1.81-1.046a5.9,5.9,0,0,0,0-4.176l1.81-1.046.5.866,1.733-1-2-3.464-1.733,1,.5.866-1.807,1.043A6.006,6.006,0,0,0,16,10.09V8h1V6H13V8h1v2.09a6.006,6.006,0,0,0-3.621,2.087L8.572,11.134l.5-.866-1.733-1-2,3.464,1.733,1,.5-.866,1.81,1.046a5.9,5.9,0,0,0,0,4.176l-1.81,1.046-.5-.866-1.733,1,2,3.464,1.733-1-.5-.866,1.807-1.043A6.006,6.006,0,0,0,14,21.91V24H13v2h4V24H16V21.91a6.006,6.006,0,0,0,3.621-2.087l1.807,1.043-.5.866,1.733,1,2-3.464-1.733-1ZM15,20a4,4,0,1,1,4-4A4,4,0,0,1,15,20Z"/><path d="M15,2A14,14,0,1,0,29,16,14.015,14.015,0,0,0,15,2Zm0,26A12,12,0,1,1,27,16,12.013,12.013,0,0,1,15,28Z"/><path d="M63,37a4.977,4.977,0,0,0-2-3.974V28a1,1,0,0,0-.293-.707L51.414,18l4.293-4.293a1,1,0,0,0,0-1.414L55.414,12,58,9.414l1.293,1.293,1.414-1.414-8-8L51.293,2.707,52.586,4,50,6.586l-.293-.293a1,1,0,0,0-1.414,0l-13,13A1,1,0,0,0,35,20v8H34a1,1,0,0,0-1,1V39a1,1,0,0,0,1,1h5v3a1,1,0,0,0,1,1h4a1,1,0,0,0,1-1V40h5a1,1,0,0,0,1-1V29a1,1,0,0,0-1-1H49V24.414l5,5v4.617a4.907,4.907,0,0,0,0,5.938V46H32v2H54v7H49V52a1,1,0,0,0-1-1H36a1,1,0,0,0-1,1v3H28a3,3,0,0,0-3,3v3a1,1,0,0,0,1,1H56a5.006,5.006,0,0,0,5-5V40.974A4.977,4.977,0,0,0,63,37ZM54,5.414,56.586,8,54,10.586,51.414,8ZM43,42H41V40h2Zm6-4H35V30H49ZM37,28V20.414l12-12L53.586,13l-6.293,6.293A1,1,0,0,0,47,20v8Zm12-6.414V20.414l1-1,9,9V32.1a4.952,4.952,0,0,0-3,.323V29a1,1,0,0,0-.293-.707ZM37,53H47v2H37Zm22,4a3,3,0,0,1-3,3H27V58a1,1,0,0,1,1-1H55a1,1,0,0,0,1-1V41.576a4.952,4.952,0,0,0,3,.323ZM58,40a3,3,0,1,1,3-3A3,3,0,0,1,58,40Z"/><rect x="13" y="32" width="2" height="2"/><rect x="13" y="36" width="2" height="2"/><rect x="13" y="40" width="2" height="2"/><rect x="13" y="44" width="2" height="2"/><rect x="13" y="48" width="2" height="2"/><rect x="13" y="52" width="2" height="2"/><rect x="13" y="56" width="2" height="2"/><rect x="17" y="56" width="2" height="2"/><rect x="21" y="56" width="2" height="2"/><rect x="30" y="10" width="2" height="2"/><rect x="34" y="10" width="2" height="2"/><rect x="38" y="10" width="2" height="2"/></svg>
