<?xml version="1.0" ?><!DOCTYPE svg  PUBLIC '-//W3C//DTD SVG 1.1//EN'  'http://www.w3.org/Graphics/SVG/1.1/DTD/svg11.dtd'><svg enable-background="new 0 0 100 100" height="100px" id="Layer_1" version="1.1" viewBox="0 0 100 100" width="100px" xml:space="preserve" xmlns="http://www.w3.org/2000/svg" xmlns:xlink="http://www.w3.org/1999/xlink"><g id="Final_laboratory_examination"><g><path d="M86.967,11H13.033C11.36,11,10,11.86,10,13.533v56.934C10,72.141,11.36,74,13.033,74H21v16h29h2h0.633h2.002H58h2.799H65    h1h7v-2h-7V74h12h8.967C88.641,74,90,72.141,90,70.467V13.533C90,11.86,88.641,11,86.967,11z M21,72h-7.967    C12.464,72,12,71.036,12,70.467V63h9V72z M50,68v20H35.477H23V64.107V62.5v-0.016L61,62.5v3.936c0,0.319,0.061,0.894,0.162,1.205    C61.184,67.702,61.203,68,61.203,68h-0.012H50z M57,88h-2.264l0.711-14H57V88z M59.85,88H59V74h1.561L59.85,88z M64,88h-2.148    l0.713-14H64V88z M76,72h-0.973H66h-2.152h-2.234H58h-4.452l-0.813,16H52V70h11.848H64h11.027H76V72z M75.998,68H64    c-1,0-1-1.131-1-1.564V61H51h-1v-2.989l10.988-0.741l1.871-11.362c0-0.642,2.652-0.906,3.021-0.906h9.146    C75.395,45,76,45.343,76,45.984V50h-5.967C68.359,50,67,50.859,67,52.533v0.396v9.536v0.626C67,64.21,67.906,66,69.945,66H76    v0.436C76,66.718,76.01,67,75.998,68z M70.059,34.287l1.803-0.764l0.006,5.163c0.003,0.146-0.016,0.291-0.04,0.423    c-0.22,1.207-1.263,2.085-2.481,2.089c-0.156-0.001-0.302-0.04-0.451-0.068l1.232-1.875c0.117-0.179,0.174-0.39,0.163-0.603    L70.059,34.287z M68.915,32.599l-1.964-0.393c0.349-1.008,1.293-1.709,2.375-1.711c0.826,0.004,1.578,0.412,2.045,1.063    L68.915,32.599z M68.063,34.468l0.211,3.962l-1.045,1.59c-0.256-0.399-0.412-0.859-0.416-1.346l-0.004-4.457L68.063,34.468z     M80.967,52C81.536,52,82,51.964,82,52.533v9.934C82,63.036,81.536,64,80.967,64H70.033C69.464,64,69,63.036,69,62.467v-8.548    v-1.386C69,51.964,69.464,52,70.033,52H76H80.967z M88,70.467C88,71.036,87.536,72,86.967,72H78v-4h-0.009    C78.002,67,78,66.895,78,66.643v-0.207v-0.293C78,65.898,77.952,66,77.877,66h3.09C83.25,66,84,64.141,84,62.467v-0.4l4,0.026    V70.467z M88,60.093l-4-0.026v-7.532C84,50.859,82.641,50,80.967,50H78v-4.479v-0.197C78,44.855,77.5,43,75.027,43H71.73    c1.053-1,1.828-1.986,2.063-3.284c0.054-0.292,0.076-0.684,0.071-0.924l-0.006-5.702c0.004-0.34-0.049-0.716-0.131-1.036    c-0.004-0.078,0.002-0.172-0.021-0.251c-0.021-0.075-0.068-0.141-0.105-0.206c-0.605-1.82-2.318-3.088-4.272-3.098    c-2.187,0.004-4.058,1.571-4.45,3.732c-0.027,0.159-0.031,0.303-0.043,0.45c-0.014,0.043-0.039,0.078-0.048,0.125    c-0.026,0.141-0.017,0.28,0.021,0.413l0.004,5.462c0,3.615,2.109,4.1,2.144,4.318h-1.074c-3.834,0-4.969,1.419-5.04,2.323    l-1.744,10.068l-9.42,0.631C48.626,56.091,48,56.958,48,58.011V61H38v-5h9c1.031,0,1-0.313,1-1.5v-13c0-0.553-0.447-0.5-1-0.5H27    c-0.553,0-1-0.053-1,0.5v13c0,1.188,0.031,1.5,1,1.5h9v5H21h-9V13.533C12,12.964,12.464,13,13.033,13h73.934    C87.536,13,88,12.964,88,13.533V60.093z M28,54V43h18v11H28z"/><path d="M72,24h-5.527c0.693-1.917,0.646-2.68,0.108-3.733c-0.712-1.399-1.912-2.264-3.47-2.264c-1.725,0-3.508,0.885-4.383,1.423    c-0.912-0.487-2.773-1.385-4.471-1.385c-1.591,0-2.777,0.997-3.342,2.382c-0.409,1.005-0.479,1.785,0.289,3.577H48    c-0.553,0-1,0.447-1,1s0.447,1,1,1h4.357c1.91,2,4.894,5,5.779,5.725c0.592,0.483,1.061,0.216,1.241,0.076    C60.311,31.08,63.419,28,65.344,26H72c0.553,0,1-0.447,1-1S72.553,24,72,24z M58.779,29.907C57.471,28.788,56.042,27,54.896,26    h1.033c0.275,0,0.539-0.364,0.729-0.564l0.876-1.058l1.353,2.685c0.447,0.938,1.395,0.658,1.58,0.483L62.38,26h0.403    C61.618,27,60.143,28.79,58.779,29.907z M64.232,24h-2.248c-0.254,0-0.496-0.153-0.682,0.02l-1.219,1.013l-1.395-2.895    c-0.146-0.294-0.426-0.529-0.75-0.578c-0.323-0.048-0.651,0.3-0.877,0.538L55.496,24h-2.047c-0.824-1.854-0.934-2.219-0.682-2.839    c0.183-0.445,0.502-1.026,1.49-1.026c1.439,0,3.362,0.93,3.98,1.313c0.344,0.212,0.785,0.164,1.113-0.071    c0.564-0.408,2.344-1.482,3.758-1.482c0.8,0,1.32,0.565,1.688,1.288C65.113,21.802,65,22.5,64.232,24z"/><path d="M85,18c0-0.553-0.447-1-1-1h-6c-0.553,0-1,0.447-1,1v6c0,0.553,0.447,1,1,1h6c0.553,0,1-0.447,1-1V18z M83,23h-4v-4h4V23z    "/><path d="M85,27c0-0.553-0.447-1-1-1h-6c-0.553,0-1,0.447-1,1v6c0,0.553,0.447,1,1,1h6c0.553,0,1-0.447,1-1V27z M83,32h-4v-4h4V32z    "/><path d="M85,36c0-0.553-0.447-1-1-1h-6c-0.553,0-1,0.447-1,1v6c0,0.553,0.447,1,1,1h6c0.553,0,1-0.447,1-1V36z M83,41h-4v-4h4V41z    "/><path d="M40.338,20.16c-1.357-1.158-3.779-2.199-6.13-1.926c-0.756,0.089-1.446,0.313-2.058,0.655l0.11-3.097    c0.021-0.553-0.411-1.016-0.963-1.035c-0.559-0.037-1.016,0.411-1.035,0.963l-0.203,5.67c-0.013,0.349,0.157,0.679,0.448,0.871    l0.895,0.59l0.764,0.504l0.77,3.214c-0.475-0.45-1.039-1.05-1.602-1.705c-0.226-0.264-0.45-0.532-0.668-0.807    c-0.189-0.239-0.478-0.379-0.782-0.379h-0.001c-0.305,0-0.593,0.139-0.782,0.377c-0.248,0.312-0.519,0.634-0.795,0.953    c-0.629,0.725-1.287,1.416-1.83,1.907c0.056-0.09,0.101-0.188,0.127-0.296l0.781-3.265l0.852-0.562l0.807-0.532    c0.291-0.192,0.461-0.522,0.448-0.871l-0.203-5.67c-0.019-0.552-0.482-0.996-1.035-0.963c-0.552,0.02-0.983,0.482-0.963,1.035    l0.11,3.097c-0.611-0.343-1.302-0.566-2.058-0.655c-2.346-0.277-4.772,0.768-6.13,1.926c-2.124,1.81-4.661,6.217-4.904,9.648    c-0.212,2.939,0.432,8.531,0.459,8.768c0.032,0.278,0.18,0.531,0.407,0.695c0.172,0.124,0.377,0.189,0.586,0.189    c0.067,0,0.135-0.007,0.202-0.021c0.82-0.169,8.086-1.714,10.427-3.893c2.163-2.014,2.244-6.41,2.206-7.896    c0.474-0.481,0.922-0.981,1.285-1.404c0.304,0.355,0.65,0.74,1.012,1.116c-0.033,1.174-0.025,6.046,2.27,8.183    c2.34,2.18,9.606,3.725,10.427,3.894c0.067,0.014,0.135,0.021,0.202,0.021c0.209,0,0.414-0.065,0.586-0.189    c0.228-0.164,0.375-0.417,0.407-0.695c0.027-0.236,0.671-5.828,0.459-8.768C44.998,26.376,42.461,21.969,40.338,20.16z     M25.025,34.083c-1.405,1.31-5.847,2.561-8.389,3.159c-0.178-1.78-0.479-5.285-0.335-7.291c0.2-2.809,2.426-6.751,4.207-8.27    c0.995-0.848,2.854-1.666,4.6-1.461c0.809,0.095,1.466,0.417,1.978,0.937l-1.836,1.21l-0.942-0.995    c-0.381-0.401-1.014-0.417-1.414-0.039c-0.401,0.38-0.418,1.013-0.039,1.414l0.699,0.739l-0.372,0.245    c-0.09,0.06-0.17,0.134-0.236,0.219c0,0-0.142,0.181-0.356,0.463l-2.487,0.543c-0.539,0.117-0.881,0.65-0.763,1.19    c0.102,0.467,0.516,0.786,0.976,0.786c0.07,0,0.143-0.008,0.215-0.023l0.312-0.068c-0.487,0.756-0.605,1.086-0.631,1.301    c-0.057,0.112-0.223,0.407-0.68,1.067c-0.671,0.97-1.571,2.146-1.928,2.607c-0.232,0.302-0.301,0.745-0.133,1.087l0.901-0.442    l0.814,0.578c0.271-0.352,0.853-1.109,1.419-1.89l1.216,1.612c0.197,0.261,0.496,0.397,0.8,0.397c0.21,0,0.421-0.065,0.602-0.201    c0.44-0.333,0.528-0.96,0.196-1.401l-1.624-2.153c0.266-0.443,0.367-0.705,0.397-0.925c0.006-0.012,0.017-0.031,0.023-0.045    l1.153,1.281c0.197,0.22,0.47,0.331,0.743,0.331c0.238,0,0.478-0.085,0.669-0.257c0.218-0.195,0.321-0.465,0.323-0.736    c0.186,0.285,0.496,0.461,0.83,0.461c0.119,0,0.239-0.021,0.356-0.065c0.084-0.032,0.177-0.085,0.267-0.132    C26.44,31.014,26.056,33.124,25.025,34.083z M25.397,27.36c0.078,0.019,0.156,0.027,0.233,0.027c0.136,0,0.264-0.035,0.385-0.087    c-0.17,0.129-0.325,0.234-0.438,0.277c-0.402,0.153-0.64,0.539-0.636,0.945c-0.03-0.049-0.047-0.104-0.087-0.147l-1.491-1.658    c0.177-0.243,0.371-0.506,0.599-0.807c0.197-0.262,0.36-0.475,0.459-0.602l0.521-0.344l-0.284,1.189    C24.528,26.692,24.86,27.231,25.397,27.36z M42.913,37.242c-2.543-0.599-6.983-1.85-8.389-3.159    c-1.068-0.993-1.469-3.253-1.592-5.005c0.163,0.089,0.321,0.163,0.469,0.206c0.41,0.117,0.825-0.048,1.065-0.376    c-0.045,0.317,0.046,0.649,0.303,0.88c0.191,0.172,0.431,0.257,0.669,0.257c0.273,0,0.546-0.111,0.743-0.331l1.153-1.282    c0.008,0.015,0.019,0.035,0.024,0.047c0.03,0.22,0.134,0.484,0.398,0.927l-1.625,2.149c-0.333,0.44-0.246,1.068,0.194,1.401    c0.181,0.137,0.393,0.202,0.603,0.202c0.303,0,0.602-0.137,0.799-0.396l1.219-1.611c0.566,0.781,1.151,1.544,1.439,1.917    l0.796-0.605l-0.896-0.442l1.794,0.883c0.168-0.342,0.1-0.785-0.133-1.087c-0.356-0.461-1.257-1.638-1.929-2.609    c-0.456-0.657-0.622-0.952-0.679-1.064c-0.024-0.215-0.143-0.545-0.631-1.302l0.312,0.068c0.072,0.016,0.145,0.023,0.215,0.023    c0.46,0,0.874-0.319,0.976-0.786c0.118-0.54-0.224-1.073-0.763-1.19l-2.487-0.543c-0.215-0.282-0.356-0.463-0.356-0.463    c-0.066-0.085-0.146-0.159-0.236-0.219l-0.372-0.245l0.699-0.739c0.379-0.401,0.362-1.034-0.039-1.414    c-0.4-0.378-1.033-0.363-1.414,0.039L34.3,22.366l-1.836-1.21c0.512-0.519,1.169-0.841,1.978-0.937    c1.748-0.205,3.604,0.613,4.6,1.461c1.78,1.518,4.006,5.46,4.207,8.27C43.392,31.956,43.091,35.462,42.913,37.242z M34.893,26.155    l-0.284-1.189l0.521,0.344c0.099,0.127,0.263,0.341,0.46,0.604c0.228,0.3,0.421,0.562,0.598,0.805l-1.491,1.658    c-0.026,0.029-0.035,0.066-0.058,0.098c0.072-0.47-0.192-0.933-0.649-1.094c0.055-0.004,0.109-0.007,0.164-0.02    C34.689,27.231,35.021,26.692,34.893,26.155z"/></g></g></svg>