<svg width="130" height="36" viewBox="0 0 130 36" fill="none" xmlns="http://www.w3.org/2000/svg">
<g clip-path="url(#clip0_7129_23995)">
<path d="M33.3203 16.8569H40.4775V23.4793L44.4383 16.8569H52.2857L46.2033 25.5798L52.4618 35.2507H44.2344L40.4775 28.2612V35.2507H33.3203V16.8569Z" fill="#0071DA"/>
<path d="M31.5144 34.6774C30.3934 35.2816 28.86 35.8067 26.7106 35.8067C20.8829 35.8067 16.7461 31.9449 16.7461 26.0567C16.7461 19.3833 22.0595 16.3115 26.6086 16.3115C28.0633 16.3115 30.083 16.6786 31.5144 17.701V24.1375C30.4165 22.7479 28.809 22.1903 27.5537 22.1903C24.8946 22.1903 23.6207 24.0027 23.6207 26.238C23.6207 28.5756 25.2791 29.914 27.5305 29.914C29.1148 29.914 30.4953 29.1798 31.5144 28.2317V34.6774Z" fill="#0071DA"/>
<path d="M7.15256 30.7201V27.9597H8.01884C8.70911 27.9597 9.81161 28.0898 9.81161 29.326C9.81161 30.6133 8.68124 30.7201 8.01884 30.7201H7.15256ZM0 16.7412V35.1351H10.5759C15.5373 35.1351 16.6121 31.8727 16.6121 30.0091C16.6121 27.5136 14.9491 25.7011 12.6467 25.3061V25.255C14.1291 24.8089 15.7643 23.4937 15.7643 21.421C15.7643 19.999 15.227 16.7412 10.0895 16.7412H0ZM7.15256 23.7307V21.1561H7.81964C9.0704 21.1561 9.40398 21.8161 9.40398 22.4434C9.40398 23.0708 9.0704 23.7307 7.81964 23.7307H7.15256Z" fill="#0071DA"/>
<path d="M94.2867 19.2017L92.2442 19.2807L92.0586 18.7788L90.0899 18.6394L90.0811 18.2723L87.9727 18.2397L88.3204 19.0018L89.261 19.1134L89.1454 18.8671L89.9976 19.4387L91.4104 19.7594L92.351 19.7919L94.7181 19.4759L94.2867 19.2017Z" fill="#3FBCF7"/>
<path d="M89.0779 17.4179L88.114 17.2877C88.114 17.2877 88.1421 16.9532 87.767 16.7673C87.3911 16.5814 87.4795 16.7534 87.4795 16.7534L87.1132 16.4838L86.4369 16.3676L86.3815 15.861L85.5012 15.8145L85.5196 15.5636L84.8345 15.48L84.5421 15.2151L84.6353 14.927L84.4634 14.6667L83.6441 14.2763L82.9582 14.0022L82.5044 13.477L81.967 13.0076L81.2722 12.3245L79.5394 11.7157L77.8949 10.4981L77.2278 10.2146L76.5237 9.86607L75.0274 9.05747L72.827 7.826L67.9536 5.45122L66.5638 4.83314C65.7763 4.48924 65.6466 4.308 65.6281 4.20576C64.9146 4.03846 64.6784 3.91298 64.3078 3.53655C63.928 3.5505 63.0895 3.06254 62.8578 2.83947C62.8578 2.82553 61.4218 2.40727 61.3292 2.32362C61.3245 2.23533 57.6046 0.920156 57.1506 0.80862C56.8263 0.78074 55.9276 0.613437 55.8026 0.55302C55.6497 0.55302 55.0799 0.371777 54.8482 0.348538C54.0747 0.260241 53.3335 0.139415 52.5367 0.125475C51.9669 0.120826 51.6426 0.125475 51.1423 0C50.9662 0.111536 49.7988 -0.0975955 49.3865 0.209123C48.9187 0.227712 47.8532 0.464723 47.5567 0.608788C46.9221 0.636676 45.8381 1.33376 45.4721 1.515C45.2914 1.6033 45.0969 1.69625 44.9023 1.78919C46.0651 2.20279 47.39 2.69075 47.39 2.74188C47.4826 2.82553 48.9141 3.24378 48.9187 3.25307C49.1503 3.48079 49.9888 3.9641 50.3686 3.95016C50.7392 4.32659 50.9801 4.45206 51.6935 4.61936C51.7121 4.72161 51.8371 4.90285 52.6247 5.24675L54.0144 5.86482L58.8878 8.23961L61.0882 9.47107L62.5845 10.2797L63.2887 10.6282L63.9558 10.9117L64.5023 11.3161L65.5771 11.7343L67.9999 12.5243L70.923 13.6676L72.0116 14.044L73.1095 14.3879L73.6283 14.2903L74.1981 14.4855L74.8282 15.0524L75.4721 14.8387L75.9075 14.9176L76.255 15.3731L76.482 15.6427L77.0332 15.81L77.5799 15.8797L78.2284 15.7588L78.9882 15.8239L79.2569 16.2793L80.3177 16.4652L81.077 16.5256L81.8417 16.586L82.4256 16.8602L82.963 17.4458L83.7268 17.6038L85.7052 17.8919L87.4979 17.6735L88.665 17.7292L89.0779 17.4179Z" fill="#3FBCF7"/>
<path d="M73.0234 20.3252L75.1312 20.3577L75.145 20.7202L77.1092 20.8643L77.2992 21.3708L79.3374 21.2871L79.7775 21.5613L77.4057 21.8774L76.4654 21.8448L75.0478 21.5288L74.1954 20.9479L74.3112 21.1989L73.3708 21.092L73.0234 20.3252Z" fill="#0071DA"/>
<path d="M73.2447 19.4577C73.2447 19.4577 73.2725 19.123 72.8973 18.9372C72.522 18.7466 72.6054 18.9232 72.6054 18.9232L72.2395 18.6537L71.5631 18.5375L71.5075 18.031L70.632 17.9892L70.6551 17.7382L69.9649 17.6545L69.6731 17.3943L69.7657 17.1061L69.5896 16.8459L68.7697 16.4508L68.0841 16.1767L67.6301 15.6609L67.0881 15.1868L66.3932 14.5037L64.6607 13.8949L63.0162 12.682L62.3491 12.3984L61.6404 12.0499L60.1486 11.2413L57.9436 10.0051L53.0749 7.63042L51.6852 7.01231C50.8976 6.66841 50.7679 6.48719 50.7493 6.38493C50.036 6.21764 49.7997 6.09216 49.4245 5.71574C49.0492 5.73433 48.2061 5.24636 47.9745 5.01865C47.9745 5.0047 46.543 4.58646 46.4504 4.5028C46.4458 4.41915 42.7259 3.09933 42.2719 2.9878C41.943 2.96457 41.049 2.79262 40.9239 2.73685C40.771 2.7415 40.2012 2.56025 39.9696 2.53237C39.1959 2.44408 38.4547 2.32324 37.6579 2.3093C37.0881 2.30001 36.7685 2.3093 36.2636 2.18848C36.0829 2.30001 34.9202 2.08623 34.5032 2.3976C34.04 2.41619 32.9745 2.6532 32.6781 2.79726C32.0434 2.8205 30.9594 3.52224 30.5888 3.70348C30.2692 3.86149 29.9032 4.01949 29.6021 4.20538C29.4631 4.31692 27.4248 5.33001 27.2904 5.4555C27.3182 5.5252 25.2939 6.73351 25.1039 6.91006C25.0205 7.00305 24.4785 7.22141 24.3442 7.35154C24.2052 7.48635 23.6633 7.97433 23.478 8.06256C23.3992 8.22992 22.8849 8.41581 22.8016 8.58776C22.6812 8.75972 22.065 9.05713 21.9678 9.17332C21.9492 9.18726 21.611 9.46606 21.3377 9.69377C21.2265 9.84252 21.1107 9.99586 20.9996 10.1492C20.8652 10.2004 20.3232 10.5117 20.1842 10.6186C20.1981 10.9439 20.2213 11.4597 19.7117 11.3621L19.1141 11.7153C19.1882 11.7107 18.7991 12.2869 18.4795 12.6866C18.2895 12.919 17.414 13.2397 17.2426 13.4766C16.8905 13.9646 16.4411 14.4154 16.0938 14.8941V14.9312H16.1354C16.1401 14.9963 16.4736 14.987 16.5199 15.1171C16.5894 15.3077 16.381 15.475 16.33 15.6423L16.3717 15.6376V15.6748C16.6403 15.6655 16.9044 15.382 17.1222 15.2658C17.3028 15.2008 17.4881 15.1218 17.6688 15.052C17.993 14.8615 18.3127 14.671 18.637 14.4758C21.0505 13.1653 23.4594 11.8501 25.8729 10.5349C27.0264 9.91222 27.9483 9.33133 29.2176 8.62491C29.5233 8.45763 30.6814 7.67224 31.5616 7.61648C32.6688 7.54678 33.9983 7.83025 34.355 7.97892C34.6978 8.09979 35.5362 8.52733 35.9579 8.62958C36.0876 8.68067 36.3285 8.85262 36.384 8.85262C36.4257 8.91306 37.2225 9.03852 37.644 9.18726C37.7877 9.28017 37.9266 9.36381 38.0702 9.44745C38.7605 9.65195 40.4837 10.0563 41.1092 10.2514C41.6372 10.4141 41.9523 10.7115 42.2164 10.7673C42.5776 11.0182 42.6564 10.8881 43.0965 11.1065C43.7636 11.1762 44.1759 11.4133 44.199 11.4365C44.4075 11.5201 44.5465 11.6085 44.7549 11.6921C44.9263 11.7153 45.2552 11.9709 45.385 12.036C45.5425 12.0686 46.6265 12.3985 46.7377 12.4543C46.9183 12.4357 47.6873 12.7702 47.7846 12.8539C48.0023 12.9561 48.2478 13.0119 48.4933 13.063L50.7076 13.9321L53.1258 14.7221L56.0489 15.8653L57.1422 16.2417L58.2401 16.581L58.7543 16.4834L59.3241 16.6786L59.9541 17.2456L60.598 17.0318L61.0335 17.1108L61.3809 17.5662L61.6033 17.8404L62.1545 18.0031L62.7012 18.0728L63.3497 17.9519L64.1095 18.0124L64.3781 18.4725L65.4389 18.6537L66.2034 18.7141L66.9677 18.7745L67.5514 19.0441L68.0841 19.625L68.8485 19.7783L70.8312 20.0711L72.624 19.8527L73.7914 19.9084L74.2083 19.5924L73.2447 19.4577Z" fill="#0071DA"/>
<path d="M58.4287 34.5063C58.0859 34.6875 57.6272 34.8409 57.0112 34.8409C56.0105 34.8409 55.399 34.4924 54.9173 34.0415C54.2548 33.4049 54 32.6939 54 31.8435C54 30.8071 54.4308 30.0542 54.9173 29.5988C55.4917 29.0551 56.2097 28.8413 57.0204 28.8413C57.4235 28.8413 57.9052 28.911 58.4287 29.1945V30.5004C57.9052 29.8962 57.2521 29.8544 57.0435 29.8544C55.8947 29.8544 55.1489 30.8071 55.1489 31.862C55.1489 33.1354 56.1264 33.8232 57.0899 33.8232C57.618 33.8232 58.0951 33.5908 58.4287 33.1958V34.5063Z" fill="#006DB7"/>
<path d="M61.6941 34.7079H60.573V29.9352H59.2852V28.9731H62.9819V29.9352H61.6941V34.7079Z" fill="#006DB7"/>
<path d="M64.1133 28.9731V34.7125H65.2343V32.5887H65.957C66.6148 32.5887 67.0874 32.3982 67.407 32.0821C67.847 31.6453 67.8795 31.0226 67.8795 30.7995C67.8795 30.3859 67.759 29.8282 67.2958 29.4146C66.8742 29.0428 66.4295 28.9778 65.7856 28.9778H64.1133V28.9731ZM65.2343 29.9352H65.6188C65.8875 29.9352 66.1793 29.9491 66.411 30.1164C66.5777 30.2372 66.7306 30.451 66.7306 30.767C66.7306 31.018 66.6287 31.2736 66.4249 31.4362C66.184 31.6221 65.9061 31.6221 65.693 31.6221H65.2389V29.9352H65.2343Z" fill="#006DB7"/>
<path d="M72.6649 34.7088H73.8646L71.4511 28.8486H70.608L68.125 34.7088H69.3387L69.8483 33.5051H72.1599L72.6649 34.7088ZM70.2003 32.5943L71.0249 30.5355L71.8356 32.5943H70.2003Z" fill="#006DB7"/>
<path d="M76.4158 31.6825L74.7064 28.9731H76.0452L77.0504 30.7484L78.1067 28.9731H79.45L77.685 31.6825L79.6447 34.7079H78.3059L77.0504 32.6074L75.7302 34.7079H74.3867L76.4158 31.6825Z" fill="#006DB7"/>
<path d="M83.6828 28.8447C81.8804 28.8447 80.625 30.0995 80.625 31.8468C80.625 33.5942 81.8804 34.8443 83.6828 34.8443C85.4845 34.8443 86.7399 33.5942 86.7399 31.8468C86.7399 30.0995 85.4845 28.8447 83.6828 28.8447ZM83.6828 33.8265C82.5664 33.8265 81.7736 33.004 81.7736 31.8468C81.7736 30.685 82.5664 29.8578 83.6828 29.8578C84.7993 29.8578 85.5913 30.685 85.5913 31.8468C85.5913 33.004 84.7993 33.8265 83.6828 33.8265Z" fill="#006DB7"/>
<path d="M89.3196 32.2123H89.7316C89.9726 32.2123 90.2553 32.2123 90.4963 32.3238C90.8618 32.4865 90.9172 32.7978 90.9172 32.9791C90.9172 33.2022 90.8385 33.4764 90.5606 33.639C90.3108 33.7831 90.0007 33.797 89.7967 33.797H89.3196V32.2123ZM88.2031 28.9731V34.7125H90.1252C90.6256 34.7125 91.1493 34.6289 91.5798 34.2478C91.9734 33.8946 92.0666 33.4252 92.0666 33.086C92.0666 32.7839 91.9967 32.3377 91.6537 32.0079C91.5108 31.8731 91.2835 31.7104 90.9084 31.65C91.0658 31.5617 91.5525 31.2596 91.5525 30.5207C91.5525 30.0374 91.3533 29.5913 91.0192 29.331C90.5566 28.9731 89.9357 28.9731 89.6208 28.9731H88.2031ZM89.3196 29.884H89.6481C90.1019 29.884 90.5051 30.0838 90.5051 30.6044C90.5051 31.3386 89.8104 31.3572 89.6393 31.3572H89.3196V29.884Z" fill="#006DB7"/>
<path d="M96.3149 28.8447C94.5132 28.8447 93.2578 30.0995 93.2578 31.8468C93.2578 33.5942 94.5084 34.8443 96.3149 34.8443C98.1221 34.8443 99.3727 33.5942 99.3727 31.8468C99.3727 30.0995 98.1173 28.8447 96.3149 28.8447ZM96.3149 33.8265C95.1992 33.8265 94.4064 33.004 94.4064 31.8468C94.4064 30.685 95.1992 29.8578 96.3149 29.8578C97.4313 29.8578 98.2241 30.685 98.2241 31.8468C98.2193 33.004 97.4313 33.8265 96.3149 33.8265Z" fill="#006DB7"/>
<path d="M102.589 27.1372C102.77 27.6205 103.251 27.639 103.362 27.639C103.473 27.639 103.955 27.6205 104.136 27.1372L104.909 27.4486C104.687 28.0294 104.154 28.4105 103.362 28.4105C102.57 28.4105 102.042 28.0341 101.814 27.4486L102.589 27.1372ZM101.949 28.9728V32.8254L105.113 28.838H105.887V34.7076H104.765V30.8364L101.602 34.8191H100.828V28.9682H101.949V28.9728Z" fill="#006DB7"/>
<path d="M110.601 28.9731V31.4641C110.601 32.2588 110.504 32.691 110.393 32.9698C110.216 33.402 109.896 33.7644 109.484 33.7459V35.9998H110.513V34.7079H114.034V35.9998H115.067V33.7459H114.464V28.9731H110.601ZM111.685 29.9352H113.353V33.7459H111.041C111.203 33.5925 111.37 33.3834 111.49 33.0674C111.597 32.7932 111.685 32.3517 111.685 31.4641V29.9352Z" fill="#006DB7"/>
<path d="M119.022 28.8447C117.22 28.8447 115.965 30.0995 115.965 31.8468C115.965 33.5942 117.22 34.8443 119.022 34.8443C120.829 34.8443 122.08 33.5942 122.08 31.8468C122.08 30.0995 120.824 28.8447 119.022 28.8447ZM119.022 33.8265C117.905 33.8265 117.113 33.004 117.113 31.8468C117.113 30.685 117.905 29.8578 119.022 29.8578C120.143 29.8578 120.931 30.685 120.931 31.8468C120.931 33.004 120.138 33.8265 119.022 33.8265Z" fill="#006DB7"/>
<path d="M123.25 34.7083L124.311 28.8667H125.089L126.641 32.617L128.262 28.8667H129.04L129.999 34.7083H128.864L128.35 31.1717L126.78 34.7826H126.469L124.964 31.1717L124.385 34.7083H123.25Z" fill="#006DB7"/>
</g>
<defs>
<clipPath id="clip0_7129_23995">
<rect width="130" height="36" fill="white"/>
</clipPath>
</defs>
</svg>
